<svg width="40" height="40" viewBox="0 0 40 40" fill="none" xmlns="http://www.w3.org/2000/svg">
    <circle cx="20" cy="20" r="19.4" stroke="#141414" stroke-width="1.2"/>
    <path fill-rule="evenodd" clip-rule="evenodd" d="M19.6247 30.6357C19.6247 30.837 19.7926 31 20 31C20.2074 31 20.3753 30.8346 20.3728 30.6333V26.3139L20.6123 26.2899C20.9728 26.254 21.3333 26.1845 21.6889 26.0838L22.0321 25.9855V29.0776C22.0321 29.279 22.2 29.442 22.4074 29.442C22.6148 29.442 22.7827 29.279 22.7827 29.0776V25.9591C22.7827 25.9352 22.7802 25.9088 22.7728 25.8776L22.7284 25.6883L22.9037 25.5948C24.8123 24.5665 25.9975 22.6153 25.9975 20.5036C25.9975 20.3022 25.8296 20.1393 25.6222 20.1393C25.2963 20.1393 24.9605 20.1656 24.6272 20.2208L23.8543 20.3454L24.3901 19.7869C25.4272 18.7059 26 17.2988 26 15.8247C26 15.6233 25.8321 15.4603 25.6247 15.4603C24.8938 15.4603 24.1827 15.585 23.516 15.8295C23.4025 15.8702 23.2889 15.9158 23.1778 15.9637C22.7728 16.1411 22.3877 16.3616 22.0272 16.6253L21.284 17.167L21.6173 16.3256C22.4716 14.1732 21.9407 11.733 20.2667 10.1079C20.1951 10.0384 20.1012 10 20 10C19.8988 10 19.8049 10.0384 19.7333 10.1079C18.6 11.2081 17.9753 12.6702 17.9753 14.2259C17.9753 14.9474 18.1086 15.6545 18.3753 16.3233L18.7086 17.1646L17.9654 16.6229C16.9235 15.863 15.6815 15.4603 14.3753 15.4603C14.1679 15.4603 14 15.6233 14 15.8247C14 17.2964 14.5728 18.7035 15.6099 19.7869L16.1457 20.3454L15.3704 20.2184C15.037 20.1632 14.7037 20.1369 14.3753 20.1369C14.1679 20.1369 14 20.2999 14 20.5012C14 22.6105 15.1852 24.5617 17.0938 25.5924L17.2691 25.6859L17.2247 25.8752C17.2173 25.9064 17.2148 25.9328 17.2148 25.9567V29.0752C17.2148 29.2766 17.3827 29.4396 17.5901 29.4396C17.7975 29.4396 17.9654 29.2766 17.9654 29.0752V25.9855L18.3086 26.0838C18.6642 26.1845 19.0272 26.254 19.3852 26.2899L19.6247 26.3139V30.6357ZM19.7605 23.3896C19.5012 22.8814 19.1679 22.4116 18.7654 21.9921L18.2321 21.4336L19.0074 21.5607C19.3383 21.6158 19.6716 21.6422 20 21.6422H20.0049C20.3333 21.6422 20.6667 21.6134 20.9951 21.5607L21.7704 21.4336L21.2346 21.9921C20.8321 22.4092 20.4988 22.879 20.2395 23.3896L20 23.8618L19.7605 23.3896Z" fill="#141414"/>
</svg>

