<svg width="40" height="40" viewBox="0 0 40 40" fill="none" xmlns="http://www.w3.org/2000/svg">
    <circle cx="20" cy="20" r="19.4" stroke="#141414" stroke-width="1.2"/>
    <rect opacity="0.01" x="2.42426" y="0.795105" width="36.3636" height="36.3636" fill="#141414"/>
    <path fill-rule="evenodd" clip-rule="evenodd" d="M17.2857 10.1097C17.2857 10.1097 18.2978 12.7163 18.2765 13.5863C18.2375 15.2553 17.9711 19.3036 17.9711 19.3036C17.9711 19.3036 13.3369 24.8647 12.0585 26.6971C11.4797 27.5281 11.643 28.7497 12.719 28.9876C13.795 29.2255 28.1949 28.9876 28.1949 28.9876C28.1949 28.9876 29.7254 28.9095 29.3525 27.4073C28.9335 25.7205 22.4491 19.1474 22.4491 19.1474C22.4491 19.1474 22.2751 16.9741 22.2467 16.2497C22.1899 14.6765 23.4385 10.1097 23.4385 10.1097H17.2857Z" stroke="#242424" stroke-width="1.2"/>
    <path fill-rule="evenodd" clip-rule="evenodd" d="M18.4292 21.097C18.4292 21.097 14.5514 24.9393 13.6814 26.516C13.5073 26.8285 13.3475 27.6346 14.1856 27.8583C15.0237 28.082 24.2531 27.7873 26.6998 27.7482C27.0443 27.7411 27.6338 27.2511 27.3142 26.5195C26.7815 25.3051 22.4598 21.1076 22.4598 21.1076L18.4292 21.097V21.097Z" fill="#141414"/>
</svg>
