<svg width="40" height="40" viewBox="0 0 40 40" fill="none" xmlns="http://www.w3.org/2000/svg">
    <circle cx="20" cy="20" r="19.4" stroke="#141414" stroke-width="1.2"/>
    <rect opacity="0.01" x="13.3333" y="13.1354" width="14.5313" height="14.5313" fill="black"/>
    <path fill-rule="evenodd" clip-rule="evenodd" d="M13.602 27.4033C13.7734 27.5733 14.0054 27.6681 14.2468 27.6667C14.4882 27.6681 14.7202 27.5733 14.8916 27.4033L27.6065 14.6884C27.8369 14.4581 27.9268 14.1223 27.8425 13.8076C27.7582 13.4929 27.5124 13.2471 27.1977 13.1628C26.883 13.0785 26.5472 13.1684 26.3168 13.3988L13.602 26.1136C13.4301 26.2842 13.3333 26.5163 13.3333 26.7585C13.3333 27.0006 13.4301 27.2328 13.602 27.4033ZM16.5173 19.4928C14.7618 19.4928 13.3386 18.0697 13.3386 16.3141C13.3386 14.5586 14.7618 13.1354 16.5173 13.1354C18.2729 13.1354 19.696 14.5586 19.696 16.3141C19.696 18.0697 18.2729 19.4928 16.5173 19.4928ZM16.5173 14.9518C15.7649 14.9518 15.155 15.5618 15.155 16.3141C15.155 17.0665 15.7649 17.6764 16.5173 17.6764C17.2697 17.6764 17.8796 17.0665 17.8796 16.3141C17.8796 15.5618 17.2697 14.9518 16.5173 14.9518ZM21.5124 24.488C21.5124 26.2435 22.9356 27.6667 24.6911 27.6667C25.5342 27.6667 26.3427 27.3318 26.9388 26.7356C27.535 26.1395 27.8699 25.331 27.8699 24.488C27.8699 22.7324 26.4467 21.3092 24.6911 21.3092C22.9356 21.3092 21.5124 22.7324 21.5124 24.488ZM24.6911 23.1257C23.9388 23.1257 23.3288 23.7356 23.3288 24.488C23.3288 25.2403 23.9388 25.8503 24.6911 25.8503C25.4435 25.8503 26.0534 25.2403 26.0534 24.488C26.0534 23.7356 25.4435 23.1257 24.6911 23.1257Z" fill="#141414"/>
</svg>
