<svg width="40" height="40" viewBox="0 0 40 40" fill="none" xmlns="http://www.w3.org/2000/svg">
    <circle cx="20" cy="20" r="19.4" stroke="#141414" stroke-width="1.2"/>
    <rect opacity="0.01" x="2.42426" y="0.795105" width="36.3636" height="36.3636" fill="#141414"/>
    <rect opacity="0.01" x="9" y="9" width="23" height="23" fill="#141414"/>
    <path fill-rule="evenodd" clip-rule="evenodd" d="M28.9914 11.6863C28.8692 11.3432 27.1669 11.5298 26.3219 11.897C25.4769 12.2643 22.5631 14.5046 21.9836 15.7442C21.4042 16.9838 21.5844 17.1789 21.2933 17.6296C21.0022 18.0803 20.8998 18.3744 20.7842 18.2482C20.6687 18.1221 20.7327 17.8756 20.9644 17.4318C21.1962 16.9881 21.6088 16.2016 21.7056 15.6742C21.8025 15.1468 21.4721 13.1843 21.4396 12.3793C21.4072 11.5743 21.0839 10.0128 20.6664 10.0001C20.249 9.98733 19.0728 11.5521 18.937 12.7313C18.8013 13.9105 18.5352 15.85 19.0339 17.0956C19.5326 18.3413 19.8189 18.0382 19.9832 18.5916C20.1475 19.1449 19.661 20.4369 19.0408 21.217C18.4206 21.9972 18.1894 22.2647 17.93 22.1829C17.6707 22.101 17.5388 21.5342 17.7215 21.137C17.9042 20.7397 18.3249 20.3067 18.3309 19.7603C18.3369 19.2138 18.1162 17.2278 17.9806 16.717C17.8451 16.2061 17.5015 15.077 17.4555 14.6402C17.4095 14.2033 17.5211 13.1315 17.2113 13.0206C16.6662 12.8512 15.8907 14.1561 15.4601 15.9786C15.0295 17.8011 15.618 19.289 15.8094 19.588C16.0009 19.8871 16.4503 20.6221 16.7679 20.9574C17.0855 21.2926 17.3618 21.4246 17.4454 21.999C17.5289 22.5734 17.5706 22.8606 17.2201 23.6689C16.8696 24.4773 15.6999 27.0093 15.3101 27.392C15.2136 26.4436 15.4589 26.7176 15.4806 25.9701C15.5022 25.2226 15.4104 24.9902 15.5496 24.3138C15.6888 23.6374 15.0631 21.1956 14.491 20.5469C14.2119 20.2103 14.3069 19.3483 14.1385 19.3317C13.97 19.3152 13.9213 19.2771 13.8182 19.8312C13.7151 20.3852 12.8286 22.1126 13.0295 23.6211C13.2304 25.1295 13.3245 25.27 13.5326 25.5825C13.7406 25.8949 14.0287 26.1036 14.2492 26.7064C14.4696 27.3092 14.4982 27.6123 14.7262 27.7899C14.9543 27.9675 14.3541 29.8658 14.3541 29.8658L15.0024 30C15.0024 30 15.5735 27.1951 16.156 26.9357C16.7384 26.6762 17.0139 27.33 18.0722 27.3372C19.1306 27.3443 20.4618 26.9813 21.0475 26.7507C21.6332 26.5201 21.9958 26.3915 22.5737 25.9365C23.1515 25.4816 23.8718 24.425 24.2966 23.9286C24.7214 23.4323 25.0245 23.3565 24.8915 23.1802C24.7585 23.004 24.1252 23.1039 23.4877 23.1382C22.8503 23.1724 20.8482 23.284 19.3775 23.8031C17.9068 24.3223 17.4187 25.4091 17.1655 25.6905C16.9124 25.9719 16.8289 26.3083 16.602 26.1674C16.3751 26.0265 16.4931 25.8383 16.6314 25.6444C16.7697 25.4505 18.4317 21.6854 20.3686 21.3461C21.3045 21.2164 21.2399 21.899 22.4941 21.9277C23.7482 21.9563 25.6905 21.508 27.1536 19.7245C28.2384 18.4006 28.5574 17.1766 28.6869 17.018C28.8165 16.8594 28.0262 16.7226 27.4583 16.8733C26.8903 17.0241 26.6528 17.2345 26.1024 17.3055C25.5519 17.3764 23.1856 17.5428 22.1809 18.4574C21.1761 19.372 21.0825 20.4928 20.6406 20.7632C20.1988 21.0336 19.6764 21.3224 19.6205 21.1446C19.5646 20.9668 20.596 18.8882 21.4277 17.9756C21.6958 17.6694 22.095 17.8546 22.972 17.4251C23.849 16.9957 26.2858 15.1273 26.9973 14.3751C27.7089 13.6229 27.7358 13.0624 28.3268 12.5915C28.9177 12.1207 29.0365 11.8143 28.9914 11.6863Z" fill="#141414"/>
</svg>
