<svg width="40" height="40" viewBox="0 0 40 40" fill="none" xmlns="http://www.w3.org/2000/svg">
    <circle cx="20" cy="20" r="19.4" stroke="#141414" stroke-width="1.2"/>
    <rect opacity="0.01" x="2.42426" y="0.795105" width="36.3636" height="36.3636" fill="#141414"/>
    <g clip-path="url(#clip0_0_1)">
        <path d="M24.7025 19.8427C24.5875 19.8427 24.4726 19.7988 24.3849 19.7111L19.3025 14.6288C19.1271 14.4534 19.1271 14.1689 19.3025 13.9935L23.2523 10.0437C24.2383 9.05771 25.5364 8.49219 26.8136 8.49219C27.8449 8.49219 28.7873 8.86661 29.4671 9.54646C31.0435 11.1228 30.8205 13.9108 28.97 15.7613L25.0201 19.7112C24.9325 19.7988 24.8174 19.8427 24.7025 19.8427ZM20.2555 14.3111L24.7025 18.7582L28.3347 15.126C29.8349 13.6258 30.0579 11.4078 28.8318 10.1818C28.3217 9.67161 27.6048 9.39067 26.8136 9.39067C25.7728 9.39067 24.7063 9.86024 23.8876 10.679L20.2555 14.3111Z" fill="#141414"/>
        <path d="M14.3287 21.9687C14.2137 21.9687 14.0987 21.9248 14.011 21.8372L10.0611 17.8873C9.1752 17.0014 8.63048 15.8754 8.52724 14.7168C8.42132 13.5281 8.7895 12.447 9.56404 11.6725C10.2438 10.9926 11.1863 10.6182 12.2176 10.6182C13.4948 10.6182 14.7929 11.1837 15.7788 12.1696L19.7286 16.1195C19.9041 16.2949 19.9041 16.5794 19.7286 16.7548L14.6463 21.8372C14.5586 21.9248 14.4436 21.9687 14.3287 21.9687ZM12.2176 11.5167C11.4262 11.5167 10.7095 11.7976 10.1993 12.3077C8.97327 13.5338 9.19631 15.7518 10.6965 17.252L14.3287 20.8841L18.7757 16.4371L15.1435 12.8049C14.3248 11.9862 13.2583 11.5167 12.2176 11.5167Z" fill="#141414"/>
        <path d="M19.7402 21.5195C18.9971 21.5195 18.3926 20.915 18.3926 20.1719C18.3926 19.4288 18.9971 18.8242 19.7402 18.8242C20.4833 18.8242 21.0879 19.4288 21.0879 20.1719C21.0879 20.915 20.4833 21.5195 19.7402 21.5195ZM19.7402 19.7227C19.4925 19.7227 19.291 19.9242 19.291 20.1719C19.291 20.4196 19.4925 20.6211 19.7402 20.6211C19.9879 20.6211 20.1895 20.4196 20.1895 20.1719C20.1895 19.9242 19.9879 19.7227 19.7402 19.7227Z" fill="#141414"/>
        <path d="M22.4355 24.2148C21.6924 24.2148 21.0879 23.6103 21.0879 22.8672C21.0879 22.1241 21.6924 21.5195 22.4355 21.5195C23.1786 21.5195 23.7832 22.1241 23.7832 22.8672C23.7832 23.6103 23.1786 24.2148 22.4355 24.2148ZM22.4355 22.418C22.1878 22.418 21.9863 22.6195 21.9863 22.8672C21.9863 23.1149 22.1878 23.3164 22.4355 23.3164C22.6832 23.3164 22.8848 23.1149 22.8848 22.8672C22.8848 22.6195 22.6832 22.418 22.4355 22.418Z" fill="#141414"/>
        <path d="M17.0449 24.2148C16.3018 24.2148 15.6972 23.6103 15.6972 22.8672C15.6972 22.1241 16.3018 21.5195 17.0449 21.5195C17.788 21.5195 18.3925 22.1241 18.3925 22.8672C18.3925 23.6103 17.788 24.2148 17.0449 24.2148ZM17.0449 22.418C16.7972 22.418 16.5957 22.6195 16.5957 22.8672C16.5957 23.1149 16.7972 23.3164 17.0449 23.3164C17.2926 23.3164 17.4941 23.1149 17.4941 22.8672C17.4941 22.6195 17.2926 22.418 17.0449 22.418Z" fill="#141414"/>
        <path d="M19.7402 26.9102C18.9971 26.9102 18.3926 26.3056 18.3926 25.5625C18.3926 24.8194 18.9971 24.2148 19.7402 24.2148C20.4833 24.2148 21.0879 24.8194 21.0879 25.5625C21.0879 26.3056 20.4833 26.9102 19.7402 26.9102ZM19.7402 25.1133C19.4925 25.1133 19.291 25.3148 19.291 25.5625C19.291 25.8102 19.4925 26.0117 19.7402 26.0117C19.9879 26.0117 20.1895 25.8102 20.1895 25.5625C20.1895 25.3148 19.9879 25.1133 19.7402 25.1133Z" fill="#141414"/>
        <path d="M17.9433 30.5039C17.2002 30.5039 16.5957 29.8993 16.5957 29.1562C16.5957 28.4132 17.2002 27.8086 17.9433 27.8086C18.6864 27.8086 19.291 28.4132 19.291 29.1562C19.291 29.8993 18.6864 30.5039 17.9433 30.5039ZM17.9433 28.707C17.6956 28.707 17.4941 28.9086 17.4941 29.1562C17.4941 29.4039 17.6956 29.6055 17.9433 29.6055C18.191 29.6055 18.3925 29.4039 18.3925 29.1562C18.3925 28.9086 18.191 28.707 17.9433 28.707Z" fill="#141414"/>
        <path d="M21.5371 30.5039C20.794 30.5039 20.1895 29.8993 20.1895 29.1562C20.1895 28.4132 20.794 27.8086 21.5371 27.8086C22.2802 27.8086 22.8848 28.4132 22.8848 29.1562C22.8848 29.8993 22.2802 30.5039 21.5371 30.5039ZM21.5371 28.707C21.2894 28.707 21.0879 28.9086 21.0879 29.1562C21.0879 29.4039 21.2894 29.6055 21.5371 29.6055C21.7848 29.6055 21.9863 29.4039 21.9863 29.1562C21.9863 28.9086 21.7848 28.707 21.5371 28.707Z" fill="#141414"/>
    </g>
    <defs>
        <clipPath id="clip0_0_1">
            <rect width="23" height="23" fill="white" transform="translate(8 8)"/>
        </clipPath>
    </defs>
</svg>
